<?xml version="1.0" encoding="UTF-8"?>
<!-- Generated by Pixelmator Pro 2.4.2 -->
<svg width="34" height="20" viewBox="0 0 34 20" xmlns="http://www.w3.org/2000/svg" xmlns:xlink="http://www.w3.org/1999/xlink">
    <g id="g1">
        <g id="g2">
            <path id="path1" fill="#ffffff" stroke="none" d="M -0 0.001808 L 33.9911 0.001808 L 33.9911 19.967505 L -0 19.967505 Z"/>
            <path id="path2" fill="#ce1124" stroke="none" d="M 33.993645 7.990952 L 19.026878 7.990952 L 19.026878 0.003048 L 14.941444 0.003048 L 14.941444 7.990952 L 0.014232 7.990952 L 0.014232 11.982704 L 14.941444 11.982704 L 14.941444 19.967316 L 19.026878 19.967316 L 19.026878 11.982704 L 33.993645 11.982704 Z"/>
        </g>
        <g id="g3">
            <path id="path3" fill="#00247d" stroke="none" d="M 0.000325 2.326742 L 0.000325 6.673828 L 7.414272 6.673828 Z"/>
            <path id="path4" fill="#00247d" stroke="none" d="M 4.090542 0.000954 L 3.981913 0.006456 L 13.595182 5.672952 L 13.595182 0.000954 Z"/>
            <path id="path5" fill="#ce1124" stroke="none" d="M 11.409529 6.646324 L 0.000325 0.001999 L 0.000325 1.568058 L 8.690827 6.646324 Z"/>
            <path id="path6" fill="#ce1124" stroke="none" d="M 22.590557 13.321142 L 33.99976 19.965467 L 33.99976 18.39941 L 25.309259 13.321142 Z"/>
        </g>
        <g id="g4">
            <path id="path7" fill="#00247d" stroke="none" d="M 0.000325 17.67421 L 0.000325 13.327105 L 7.414272 13.327105 Z"/>
            <path id="path8" fill="#00247d" stroke="none" d="M 4.090542 20 L 3.981913 19.994476 L 13.595182 14.328037 L 13.595182 20 Z"/>
            <path id="path9" fill="#ce1124" stroke="none" d="M 11.351182 13.320686 L 0.007791 19.962059 L 2.660697 19.96501 L 13.606065 13.59078 L 13.606065 13.320686 Z"/>
        </g>
        <g id="g5">
            <path id="path10" fill="#00247d" stroke="none" d="M 34 2.32579 L 34 6.672857 L 26.586086 6.672857 Z"/>
            <path id="path11" fill="#00247d" stroke="none" d="M 29.909784 0 L 30.018412 0.005486 L 20.405176 5.671962 L 20.405176 0 Z"/>
            <path id="path12" fill="#ce1124" stroke="none" d="M 33.989048 0.009296 L 31.437407 0.009066 L 20.414917 6.42819 L 20.414917 6.65339 L 22.746923 6.65339 Z"/>
        </g>
        <g id="g6">
            <path id="path13" fill="#00247d" stroke="none" d="M 34 17.67259 L 34 13.325486 L 26.586086 13.325486 Z"/>
            <path id="path14" fill="#00247d" stroke="none" d="M 29.909784 19.998343 L 30.018412 19.992857 L 20.405176 14.326382 L 20.405176 19.998343 Z"/>
        </g>
    </g>
</svg>
